<!DOCTYPE svg PUBLIC "-//W3C//DTD SVG 1.1//EN" "http://www.w3.org/Graphics/SVG/1.1/DTD/svg11.dtd">
<!-- Uploaded to: SVG Repo, www.svgrepo.com, Transformed by: SVG Repo Mixer Tools -->
<svg width="256px" height="256px" viewBox="0 0 24.00 24.00" xmlns="http://www.w3.org/2000/svg" fill="none" stroke="#ffffff" transform="matrix(1, 0, 0, 1, 0, 0)">
<g id="SVGRepo_bgCarrier" stroke-width="0"/>
<g id="SVGRepo_tracerCarrier" stroke-linecap="round" stroke-linejoin="round"/>
<g id="SVGRepo_iconCarrier">
<path stroke="#ffffff" stroke-linecap="round" stroke-linejoin="round" stroke-width="2.232" d="M18 7.96c2.59-.125 4.379.274 4.625 1.193.429 1.6-3.98 4.172-9.849 5.745-5.868 1.572-10.972 1.55-11.401-.051-.254-.948 1.188-2.236 3.625-3.455"/>
<path fill="#ffffff" fill-rule="evenodd" d="M4 12a8 8 0 1 1 15.985.491c-1.653.879-3.904 1.754-6.467 2.44-2.874.77-5.526 1.14-7.478 1.131a12.275 12.275 0 0 1-.956-.039A7.963 7.963 0 0 1 4 12zm2.766 6.05a8.003 8.003 0 0 0 12.658-3.065c-1.561.697-3.4 1.346-5.389 1.879-2.668.715-5.208 1.115-7.269 1.186z" clip-rule="evenodd"/>
</g>
</svg>